<svg width="36.000000" height="36.000000" viewBox="0 0 36 36" fill="none" xmlns="http://www.w3.org/2000/svg" xmlns:xlink="http://www.w3.org/1999/xlink">
	<desc>
			Created with Pixso.
	</desc>
	<defs>
		<filter id="filter_57_425_dd" x="0.000000" y="0.000000" width="36.000000" height="36.000000" filterUnits="userSpaceOnUse" color-interpolation-filters="sRGB">
			<feFlood flood-opacity="0" result="BackgroundImageFix"/>
			<feColorMatrix in="SourceAlpha" type="matrix" values="0 0 0 0 0 0 0 0 0 0 0 0 0 0 0 0 0 0 127 0" result="hardAlpha"/>
			<feOffset dx="0" dy="4"/>
			<feGaussianBlur stdDeviation="1.33333"/>
			<feComposite in2="hardAlpha" operator="out" k2="-1" k3="1"/>
			<feColorMatrix type="matrix" values="0 0 0 0 0 0 0 0 0 0 0 0 0 0 0 0 0 0 0.25 0"/>
			<feBlend mode="normal" in2="BackgroundImageFix" result="effect_dropShadow_1"/>
			<feBlend mode="normal" in="SourceGraphic" in2="effect_dropShadow_1" result="shape"/>
		</filter>
		<clipPath id="clip57_425">
			<rect id="email 1" width="28.000000" height="28.000000" transform="translate(4.000000 0.000000)" fill="white" fill-opacity="0"/>
		</clipPath>
	</defs>
	<g filter="url(#filter_57_425_dd)">
		<rect id="email 1" width="28.000000" height="28.000000" transform="translate(4.000000 0.000000)" fill="#FFFFFF" fill-opacity="0"/>
		<g clip-path="url(#clip57_425)">
			<path id="Vector" d="M17.9998 0C10.2681 0 4.00012 6.26819 4.00012 13.9999C4.00012 21.7314 10.2681 28 17.9998 28C25.7315 28 31.9999 21.7314 31.9999 13.9999C31.9999 6.26819 25.7315 0 17.9998 0ZM18.0001 4.91736L26.2847 10.0835L9.71544 10.0835L18.0001 4.91736ZM26.3879 18.333L26.3871 18.333C26.3871 19.1616 25.7155 19.833 24.887 19.833L11.1131 19.833C10.2845 19.833 9.61305 19.1615 9.61305 18.333L9.61305 10.4122C9.61305 10.3246 9.62202 10.2394 9.63658 10.1556L17.5521 15.0914C17.5618 15.0974 17.5721 15.1016 17.5821 15.1072C17.5926 15.1129 17.6032 15.1185 17.6139 15.1239C17.6698 15.1527 17.7274 15.176 17.7862 15.1912C17.7923 15.1929 17.7984 15.1936 17.8044 15.1949C17.869 15.2102 17.9345 15.2197 17.9998 15.2197L18.0003 15.2197C18.0007 15.2197 18.0012 15.2197 18.0012 15.2197C18.0665 15.2197 18.132 15.2104 18.1965 15.1949C18.2026 15.1935 18.2087 15.1929 18.2147 15.1912C18.2735 15.176 18.3309 15.1527 18.3871 15.1239C18.3978 15.1185 18.4084 15.1129 18.4189 15.1072C18.4288 15.1016 18.4392 15.0974 18.4489 15.0914L26.3644 10.1556C26.379 10.2394 26.3879 10.3243 26.3879 10.4122L26.3879 18.333Z" fill="#10B981" fill-opacity="1.000000" fill-rule="nonzero"/>
		</g>
	</g>
</svg>
