<svg width="32.000000" height="32.000000" viewBox="0 0 32 32" fill="none" xmlns="http://www.w3.org/2000/svg" xmlns:xlink="http://www.w3.org/1999/xlink">
	<desc>
			Created with Pixso.
	</desc>
	<defs>
		<filter id="filter_5_547_dd" x="0.000000" y="0.000000" width="32.000000" height="32.000000" filterUnits="userSpaceOnUse" color-interpolation-filters="sRGB">
			<feFlood flood-opacity="0" result="BackgroundImageFix"/>
			<feColorMatrix in="SourceAlpha" type="matrix" values="0 0 0 0 0 0 0 0 0 0 0 0 0 0 0 0 0 0 127 0" result="hardAlpha"/>
			<feOffset dx="0" dy="4"/>
			<feGaussianBlur stdDeviation="1.33333"/>
			<feComposite in2="hardAlpha" operator="out" k2="-1" k3="1"/>
			<feColorMatrix type="matrix" values="0 0 0 0 0 0 0 0 0 0 0 0 0 0 0 0 0 0 0.25 0"/>
			<feBlend mode="normal" in2="BackgroundImageFix" result="effect_dropShadow_1"/>
			<feBlend mode="normal" in="SourceGraphic" in2="effect_dropShadow_1" result="shape"/>
		</filter>
		<clipPath id="clip5_547">
			<rect id="Frame" width="24.000000" height="24.000000" transform="translate(4.000000 0.000000)" fill="white" fill-opacity="0"/>
		</clipPath>
	</defs>
	<g filter="url(#filter_5_547_dd)">
		<rect id="Frame" width="24.000000" height="24.000000" transform="translate(4.000000 0.000000)" fill="#FFFFFF" fill-opacity="0"/>
		<g clip-path="url(#clip5_547)">
			<path id="Vector" d="M22 7.5L22 10.5L22 13.5M22 10.5L25 10.5M22 10.5L19 10.5M15.7615 8.76147C15.1285 9.39453 14.2701 9.75 13.375 9.75C12.4799 9.75 11.6215 9.39453 10.9885 8.76147C10.3556 8.12866 10 7.27002 10 6.375C10 5.47998 10.3556 4.62134 10.9885 3.98853C11.6215 3.35547 12.4799 3 13.375 3C14.2701 3 15.1285 3.35547 15.7615 3.98853C16.3944 4.62134 16.75 5.47998 16.75 6.375C16.75 7.27002 16.3944 8.12866 15.7615 8.76147ZM7 19.125C7 17.4343 7.67163 15.8127 8.86719 14.6172C10.0627 13.4216 11.6843 12.75 13.375 12.75C15.0657 12.75 16.6873 13.4216 17.8828 14.6172C19.0784 15.8127 19.75 17.4343 19.75 19.125L19.75 19.2339C17.8255 20.3931 15.6206 21.0039 13.374 21C11.043 21 8.862 20.355 7 19.2339L7 19.2351L7 19.125Z" stroke="#12132D" stroke-opacity="0.600000" stroke-width="1.500000" stroke-linejoin="round"/>
		</g>
	</g>
</svg>
